<svg width="2160" height="3840" viewBox="0 0 2160 3840" fill="none" xmlns="http://www.w3.org/2000/svg">
  <rect width="2160" height="3840" fill="#F4F5EF"/>
  <rect width="2160" height="3840" fill="url(#paint0_linear)"/>
  <circle cx="280" cy="260" r="980" fill="url(#paint1_radial)" fill-opacity="0.96"/>
  <circle cx="1830" cy="420" r="760" fill="url(#paint2_radial)" fill-opacity="0.9"/>
  <circle cx="1840" cy="3410" r="1020" fill="url(#paint3_radial)" fill-opacity="0.92"/>
  <circle cx="220" cy="3340" r="720" fill="url(#paint4_radial)" fill-opacity="0.82"/>
  <path d="M-120 1040C290 900 660 888 1000 1010C1330 1128 1660 1356 2280 1280" stroke="#DCE5D2" stroke-width="14" stroke-linecap="round" opacity="0.75"/>
  <path d="M-160 2860C300 2660 610 2634 1030 2800C1380 2938 1720 3110 2290 3000" stroke="#E7E1D6" stroke-width="12" stroke-linecap="round" opacity="0.7"/>
  <path d="M1640 160C1500 430 1505 770 1720 980C1875 1138 2090 1170 2260 1120" stroke="#C7D4C1" stroke-width="10" stroke-linecap="round" opacity="0.55"/>
  <path d="M330 2410C160 2590 100 2920 290 3170C450 3385 760 3455 1030 3370" stroke="#E7EBDD" stroke-width="10" stroke-linecap="round" opacity="0.5"/>
  <defs>
    <linearGradient id="paint0_linear" x1="1080" y1="0" x2="1080" y2="3840" gradientUnits="userSpaceOnUse">
      <stop stop-color="#F4F5EF"/>
      <stop offset="0.52" stop-color="#F2F4EC"/>
      <stop offset="1" stop-color="#F6F6F1"/>
    </linearGradient>
    <radialGradient id="paint1_radial" cx="0" cy="0" r="1" gradientUnits="userSpaceOnUse" gradientTransform="translate(280 260) rotate(90) scale(980)">
      <stop stop-color="#E1EAD8"/>
      <stop offset="1" stop-color="#E1EAD8" stop-opacity="0"/>
    </radialGradient>
    <radialGradient id="paint2_radial" cx="0" cy="0" r="1" gradientUnits="userSpaceOnUse" gradientTransform="translate(1830 420) rotate(90) scale(760)">
      <stop stop-color="#EFEDE3"/>
      <stop offset="1" stop-color="#EFEDE3" stop-opacity="0"/>
    </radialGradient>
    <radialGradient id="paint3_radial" cx="0" cy="0" r="1" gradientUnits="userSpaceOnUse" gradientTransform="translate(1840 3410) rotate(90) scale(1020)">
      <stop stop-color="#EAEFD8"/>
      <stop offset="1" stop-color="#EAEFD8" stop-opacity="0"/>
    </radialGradient>
    <radialGradient id="paint4_radial" cx="0" cy="0" r="1" gradientUnits="userSpaceOnUse" gradientTransform="translate(220 3340) rotate(90) scale(720)">
      <stop stop-color="#EEE8DC"/>
      <stop offset="1" stop-color="#EEE8DC" stop-opacity="0"/>
    </radialGradient>
  </defs>
</svg>
